<svg width="24" height="24" viewBox="0 0 24 24" fill="none" xmlns="http://www.w3.org/2000/svg">
<path d="M24.0008 17V19H21.0008V17C21.0008 15.45 20.3008 14.06 19.1808 13.06C24.0008 13.55 24.0008 17 24.0008 17ZM18.0008 5C19.6608 5 21.0008 6.34 21.0008 8C21.0008 9.66 19.6608 11 18.0008 11C17.6908 11 17.3808 10.95 17.1008 10.86C17.6708 10.05 18.0008 9.07 18.0008 8C18.0008 6.94 17.6708 5.95 17.1008 5.14C17.3808 5.05 17.6908 5 18.0008 5ZM13.0008 5C14.6608 5 16.0008 6.34 16.0008 8C16.0008 9.66 14.6608 11 13.0008 11C11.3408 11 10.0008 9.66 10.0008 8C10.0008 6.34 11.3408 5 13.0008 5ZM19.0008 17V19H7.00084V17C7.00084 14.79 9.69084 13 13.0008 13C16.3108 13 19.0008 14.79 19.0008 17ZM13.0008 7C12.4508 7 12.0008 7.45 12.0008 8C12.0008 8.55 12.4508 9 13.0008 9C13.5508 9 14.0008 8.55 14.0008 8C14.0008 7.45 13.5508 7 13.0008 7ZM13.0008 15C10.7908 15 9.00084 15.9 9.00084 17H17.0008C17.0008 15.9 15.2108 15 13.0008 15ZM0.464844 13.12L2.59084 11L0.464844 8.88L1.88084 7.46L4.00084 9.59L6.12084 7.46L7.54084 8.88L5.41084 11L7.54084 13.12L6.12084 14.54L4.00084 12.41L1.88084 14.54L0.464844 13.12Z" fill="#F9E06A"/>
</svg>
