<svg width="24" height="24" viewBox="0 0 24 24" fill="none" xmlns="http://www.w3.org/2000/svg">
<path d="M17.5 10.999C19.433 10.999 21 12.566 21 14.499C21 15.5045 20.576 16.4109 19.8971 17.0493C21.7335 17.9379 23 19.8205 23 21.999C23 22.5513 22.5523 22.999 22 22.999H13C12.4477 22.999 12 22.5513 12 21.999C12 19.8205 13.2665 17.9379 15.1034 17.0472C14.424 16.4109 14 15.5045 14 14.499C14 12.566 15.567 10.999 17.5 10.999ZM3 14.999C3.51284 14.999 3.93551 15.3851 3.99327 15.8824L4 15.999V18.999C4 19.5118 4.38605 19.9345 4.88338 19.9923L5 19.999H8C8.55228 19.999 9 20.4467 9 20.999C9 21.5119 8.61396 21.9345 8.11662 21.9923L8 21.999H5C3.40232 21.999 2.09634 20.7501 2.00509 19.1753L2 18.999V15.999C2 15.4467 2.44772 14.999 3 14.999ZM17.5 18.499C15.9536 18.499 14.6414 19.5019 14.1784 20.8927L14.146 20.999H20.853L20.8216 20.8927C20.3779 19.5598 19.1543 18.5833 17.692 18.5042L17.5 18.499ZM17.5 12.999C16.6716 12.999 16 13.6706 16 14.499C16 15.3275 16.6716 15.999 17.5 15.999C18.3284 15.999 19 15.3275 19 14.499C19 13.6706 18.3284 12.999 17.5 12.999ZM6.5 0.999023C9.47658 0.999023 12 2.12055 12 3.99902V3.99802V9.99902C12 11.8775 9.47656 12.999 6.5 12.999C3.60849 12.999 1.14457 11.9407 1.00613 10.1582L1 9.99902L1 3.99802C1.0009 2.12015 3.52396 0.999023 6.5 0.999023ZM6.5 9.99902C5.18593 9.99902 3.96017 9.78044 3.00085 9.37463L3.00176 9.99925L3.04449 10.0515C3.05372 10.062 3.06479 10.0742 3.07803 10.0881C3.20512 10.2217 3.42566 10.3668 3.72416 10.4994C4.4268 10.8117 5.42324 10.999 6.5 10.999C7.57677 10.999 8.57321 10.8117 9.27585 10.4994C9.57435 10.3668 9.79488 10.2217 9.92197 10.0881L9.99824 9.99925L9.99915 9.37463C9.03984 9.78044 7.81408 9.99902 6.5 9.99902ZM19 1.99902C20.5977 1.99902 21.9037 3.24795 21.9949 4.82275L22 4.99902V7.99902C22 8.55131 21.5523 8.99902 21 8.99902C20.4872 8.99902 20.0645 8.61298 20.0067 8.11564L20 7.99902V4.99902C20 4.4862 19.614 4.06352 19.1166 4.00575L19 3.99902H16C15.4477 3.99902 15 3.55131 15 2.99902C15 2.48619 15.386 2.06352 15.8834 2.00575L16 1.99902H19ZM10.0002 6.37421C9.04069 6.78028 7.81453 6.99902 6.5 6.99902C5.18547 6.99902 3.95931 6.78028 2.99985 6.37421L3 6.99202L3.00176 6.99925L3.04449 7.05155C3.05372 7.06205 3.06479 7.07421 3.07803 7.08812C3.20512 7.22167 3.42566 7.36675 3.72416 7.49942C4.4268 7.81171 5.42324 7.99902 6.5 7.99902C7.57677 7.99902 8.57321 7.81171 9.27585 7.49942C9.57435 7.36675 9.79488 7.22167 9.92197 7.08812L9.99824 6.99925L9.999 6.98202L10.0002 6.37421ZM6.5 2.99902C5.42324 2.99902 4.4268 3.18634 3.72416 3.49862C3.42566 3.63129 3.20512 3.77637 3.07803 3.90992C3.06479 3.92383 3.05372 3.93599 3.04449 3.94649L3.00176 3.99879L3.07803 4.08812C3.20512 4.22167 3.42566 4.36675 3.72416 4.49942C4.4268 4.81171 5.42324 4.99902 6.5 4.99902C7.57677 4.99902 8.57321 4.81171 9.27585 4.49942C9.57435 4.36675 9.79488 4.22167 9.92197 4.08812C9.93521 4.07421 9.94628 4.06205 9.95551 4.05155L9.9916 4.0077L10 3.99902L9.92197 3.90992C9.79488 3.77637 9.57435 3.63129 9.27585 3.49862C8.57321 3.18634 7.57677 2.99902 6.5 2.99902Z" fill="#F9E06A"/>
</svg>
