<svg width="24" height="24" viewBox="0 0 24 24" fill="none" xmlns="http://www.w3.org/2000/svg">
<path d="M14 16.999H22V18.999H14V16.999ZM20 11.999C20 8.63902 17.93 5.76902 15 4.58902V4.99902C15 6.09902 14.1 6.99902 13 6.99902H11V8.99902C11 9.54902 10.55 9.99902 10 9.99902H8V11.999H14C14.5 11.999 14.9 12.349 15 12.809C13.2 13.849 12 15.789 12 17.999C12 19.499 12.54 20.849 13.44 21.899L12 21.999C6.5 21.999 2 17.499 2 11.999C2 6.49902 6.5 1.99902 12 1.99902C17.5 1.99902 22 6.49902 22 11.999L21.9 13.439C21.34 12.959 20.7 12.589 20 12.339V11.999ZM11 19.929V17.999C9.9 17.999 9 17.099 9 15.999V14.999L4.21 10.209C4.08 10.779 4 11.379 4 11.999C4 16.079 7.06 19.439 11 19.929Z" fill="#F9E06A"/>
</svg>
