<svg width="24" height="24" viewBox="0 0 24 24" fill="none" xmlns="http://www.w3.org/2000/svg">
<path fill-rule="evenodd" clip-rule="evenodd" d="M12 2.99902C11.1716 2.99902 10.5 3.6706 10.5 4.49902C10.5 5.32745 11.1716 5.99902 12 5.99902C12.8284 5.99902 13.5 5.32745 13.5 4.49902C13.5 3.6706 12.8284 2.99902 12 2.99902ZM14.7497 6.66476C15.2196 6.06896 15.5 5.31674 15.5 4.49902C15.5 2.56603 13.933 0.999023 12 0.999023C10.067 0.999023 8.5 2.56603 8.5 4.49902C8.5 5.31674 8.78042 6.06896 9.25035 6.66476C7.56631 7.5346 6.34701 9.1785 6.06308 11.1258C4.58502 11.5355 3.5 12.8905 3.5 14.499C3.5 15.3167 3.78042 16.069 4.25034 16.6648C2.31978 17.6619 1 19.6764 1 21.999C1 22.5513 1.44772 22.999 2 22.999C2.55228 22.999 3 22.5513 3 21.999C3 19.7899 4.79086 17.999 7 17.999C9.20912 17.999 11 19.7899 11 21.999C11 22.5513 11.4477 22.999 12 22.999C12.5523 22.999 13 22.5513 13 21.999C13 19.7899 14.7909 17.999 17 17.999C19.2091 17.999 21 19.7899 21 21.999C21 22.5513 21.4477 22.999 22 22.999C22.5523 22.999 23 22.5513 23 21.999C23 19.6764 21.6802 17.6619 19.7497 16.6648C20.2196 16.069 20.5 15.3167 20.5 14.499C20.5 12.8905 19.415 11.5355 17.9369 11.1258C17.653 9.1785 16.4337 7.5346 14.7497 6.66476ZM15.9141 11.1707C15.5327 9.35907 13.9251 7.99902 12 7.99902C10.0749 7.99902 8.46734 9.35907 8.08587 11.1707C9.4873 11.6277 10.5 12.9451 10.5 14.499C10.5 15.3167 10.2196 16.069 9.74965 16.6648C10.6606 17.1353 11.4355 17.8323 12 18.6812C12.5645 17.8323 13.3394 17.1353 14.2503 16.6648C13.7804 16.069 13.5 15.3167 13.5 14.499C13.5 12.9451 14.5127 11.6277 15.9141 11.1707ZM17 15.999C17.8284 15.999 18.5 15.3275 18.5 14.499C18.5 13.6706 17.8284 12.999 17 12.999C16.1716 12.999 15.5 13.6706 15.5 14.499C15.5 15.3275 16.1716 15.999 17 15.999ZM7 15.999C7.82843 15.999 8.5 15.3275 8.5 14.499C8.5 13.6706 7.82843 12.999 7 12.999C6.17157 12.999 5.5 13.6706 5.5 14.499C5.5 15.3275 6.17157 15.999 7 15.999Z" fill="#F9E06A"/>
</svg>
