<svg width="24" height="24" viewBox="0 0 24 24" fill="none" xmlns="http://www.w3.org/2000/svg">
<path d="M15.6605 11.2C15.4305 10.9 15.1505 10.64 14.8905 10.38C14.2205 9.78 13.4605 9.35 12.8205 8.72C11.3305 7.26 11.0005 4.85 11.9505 3C11.0005 3.23 10.1705 3.75 9.46054 4.32C6.87054 6.4 5.85054 10.07 7.07054 13.22C7.11054 13.32 7.15054 13.42 7.15054 13.55C7.15054 13.77 7.00054 13.97 6.80054 14.05C6.57054 14.15 6.33054 14.09 6.14054 13.93C6.08054 13.88 6.04054 13.83 6.00054 13.76C4.87054 12.33 4.69054 10.28 5.45054 8.64C3.78054 10 2.87054 12.3 3.00054 14.47C3.06054 14.97 3.12054 15.47 3.29054 15.97C3.43054 16.57 3.70054 17.17 4.00054 17.7C5.08054 19.43 6.95054 20.67 8.96054 20.92C11.1005 21.19 13.3905 20.8 15.0305 19.32C16.8605 17.66 17.5005 15 16.5605 12.72L16.4305 12.46C16.2205 12 15.6605 11.2 15.6605 11.2ZM12.5005 17.5C12.2205 17.74 11.7605 18 11.4005 18.1C10.2805 18.5 9.16054 17.94 8.50054 17.28C9.69054 17 10.4005 16.12 10.6105 15.23C10.7805 14.43 10.4605 13.77 10.3305 13C10.2105 12.26 10.2305 11.63 10.5005 10.94C10.6905 11.32 10.8905 11.7 11.1305 12C11.9005 13 13.1105 13.44 13.3705 14.8C13.4105 14.94 13.4305 15.08 13.4305 15.23C13.4605 16.05 13.1005 16.95 12.5005 17.5ZM21.0005 13H19.0005V7H21.0005V13ZM21.0005 17H19.0005V15H21.0005V17Z" fill="#F9E06A"/>
</svg>
