<svg width="24" height="24" viewBox="0 0 24 24" fill="none" xmlns="http://www.w3.org/2000/svg">
<path fill-rule="evenodd" clip-rule="evenodd" d="M13.5 7.49939C13.5 6.9471 13.9477 6.49939 14.5 6.49939H20.5C21.0523 6.49939 21.5 6.9471 21.5 7.49939V13.4994C21.5 14.0517 21.0523 14.4994 20.5 14.4994C19.9477 14.4994 19.5 14.0517 19.5 13.4994V9.99281L13.8152 15.9401C13.4905 16.2798 12.9732 16.3476 12.572 16.1031L8.38814 13.5536L3.77061 19.1365C3.41862 19.5621 2.78827 19.6217 2.36269 19.2697C1.93711 18.9177 1.87745 18.2874 2.22944 17.8618L7.39869 11.6118C7.71541 11.2289 8.26529 11.1366 8.68965 11.3952L12.9255 13.9764L18.1608 8.49939H14.5C13.9477 8.49939 13.5 8.05167 13.5 7.49939Z" fill="#F9E06A"/>
<path fill-rule="evenodd" clip-rule="evenodd" d="M4.29289 8.70613C4.68342 9.09665 5.31658 9.09665 5.70711 8.70613L7.70711 6.70613C8.09763 6.31561 8.09763 5.68244 7.70711 5.29192C7.31658 4.90139 6.68342 4.90139 6.29289 5.29192L6 5.58481V2.99902C6 2.44674 5.55228 1.99902 5 1.99902C4.44771 1.99902 4 2.44674 4 2.99902V5.58481L3.70711 5.29192C3.31658 4.90139 2.68342 4.90139 2.29289 5.29192C1.90237 5.68244 1.90237 6.31561 2.29289 6.70613L4.29289 8.70613Z" fill="#F9E06A"/>
</svg>
