<svg width="24" height="24" viewBox="0 0 24 24" fill="none" xmlns="http://www.w3.org/2000/svg">
<path d="M11.5078 13.0005L11.6495 13.0014L11.7872 13.0026L12.3005 13.0107L12.7583 13.0247L13.1667 13.0458C14.1309 13.1084 14.689 13.248 15.2699 13.544C16.1324 13.9834 16.847 14.6628 17.3293 15.4976L17.4551 15.7291L17.5039 15.8272L17.5928 16.0206L17.6705 16.2146L17.6883 16.2637L17.7054 16.3133L17.7678 16.5175L17.7819 16.5704L17.7954 16.6242L17.8441 16.8497L17.855 16.9091L17.8654 16.9699L17.902 17.228L17.9315 17.5142L17.9546 17.8332L17.9721 18.1902L17.9892 18.8075L17.999 19.8099L18 20.999C18 21.5119 17.614 21.9345 17.1166 21.9923L17 21.999H2C1.48705 21.999 1.06433 21.6128 1.00669 21.1154L1 20.9987L1.00038 19.7868L1.0036 19.2118L1.01165 18.6985L1.02567 18.2407L1.04677 17.8323C1.10933 16.8681 1.24894 16.3101 1.54497 15.7291C2.02433 14.7883 2.78924 14.0233 3.73008 13.544C4.29815 13.2545 4.84429 13.1146 5.76963 13.0501L6.0317 13.0343L6.46401 13.0169L6.9488 13.006L7.49218 13.0005H11.5078ZM11.4733 15.0003H7.52843L6.83083 15.0086L6.2575 15.0266L5.93561 15.0449L5.6559 15.0688L5.41315 15.0989L5.20213 15.1358C5.11461 15.1538 5.03496 15.1739 4.9611 15.1964L4.85439 15.232L4.70722 15.2924L4.63804 15.326C4.07356 15.6136 3.61461 16.0726 3.32698 16.6371L3.29345 16.7063L3.26215 16.7782L3.20598 16.9327L3.16922 17.0605L3.13679 17.2011L3.09991 17.4121L3.06977 17.6547L3.04585 17.9343L3.02041 18.4343L3.00587 19.0467L3 19.999H15.999L15.996 19.3623L15.9901 18.9142L15.975 18.3454L15.96 18.0273L15.9406 17.7518L15.9161 17.5136L15.8862 17.3074L15.8502 17.1278L15.8403 17.0865L15.8299 17.0464L15.7841 16.8967L15.7311 16.7604L15.673 16.6371C15.3854 16.0726 14.9264 15.6136 14.362 15.326L14.2928 15.2925L14.2209 15.2612L14.0664 15.205L13.9385 15.1682L13.7979 15.1358L13.587 15.0989L13.3443 15.0688L13.0648 15.0449L12.5649 15.0194L11.9526 15.0049L11.4733 15.0003ZM19 5.49902C19.5128 5.49902 19.9355 5.88506 19.9933 6.3824L20 6.49902V8.49902H22C22.5523 8.49902 23 8.94674 23 9.49902C23 10.0119 22.614 10.4345 22.1166 10.4923L22 10.499H20V12.499C20 13.0513 19.5523 13.499 19 13.499C18.4872 13.499 18.0645 13.113 18.0067 12.6156L18 12.499V10.499H16C15.4477 10.499 15 10.0513 15 9.49902C15 8.98619 15.386 8.56352 15.8834 8.50575L16 8.49902H18V6.49902C18 5.94674 18.4477 5.49902 19 5.49902ZM9.5 1.99902C11.9853 1.99902 14 4.01374 14 6.49902C14 8.98431 11.9853 10.999 9.5 10.999C7.01472 10.999 5 8.98431 5 6.49902C5 4.01374 7.01472 1.99902 9.5 1.99902ZM9.5 3.99902C8.11929 3.99902 7 5.11831 7 6.49902C7 7.87974 8.11929 8.99902 9.5 8.99902C10.8807 8.99902 12 7.87974 12 6.49902C12 5.11831 10.8807 3.99902 9.5 3.99902Z" fill="#F9E06A"/>
</svg>
