<svg width="24" height="24" viewBox="0 0 24 24" fill="none" xmlns="http://www.w3.org/2000/svg">
<path d="M11.5078 13.0005C11.6036 13.001 11.6967 13.0017 11.7872 13.0026L12.3005 13.0107L12.7583 13.0247L13.1667 13.0458C14.1309 13.1084 14.689 13.248 15.2699 13.544C16.2108 14.0233 16.9757 14.7883 17.4551 15.7291L17.5039 15.8272L17.5928 16.0206L17.6705 16.2146C17.6825 16.2472 17.6942 16.2801 17.7054 16.3133L17.7678 16.5175C17.7774 16.5525 17.7866 16.588 17.7954 16.6242L17.8441 16.8497C17.8516 16.8889 17.8586 16.9289 17.8654 16.9699L17.902 17.228L17.9315 17.5142L17.9546 17.8332L17.9721 18.1902L17.9892 18.8075L17.999 19.8099L18 20.999C18 21.5513 17.5523 21.999 17 21.999H2C1.44759 21.999 0.999829 21.5511 1 20.9987L1.00038 19.7868L1.0036 19.2118L1.01165 18.6985L1.02567 18.2407L1.04677 17.8323C1.10933 16.8681 1.24894 16.3101 1.54497 15.7291C2.02433 14.7883 2.78924 14.0233 3.73008 13.544C4.34979 13.2282 4.94341 13.0904 6.0317 13.0343L6.46401 13.0169L6.9488 13.006L7.49218 13.0005H11.5078ZM20.2699 13.544C21.2107 14.0233 21.9756 14.7883 22.455 15.7291L22.5497 15.9241C22.5645 15.9563 22.5788 15.9884 22.5927 16.0206L22.6704 16.2146C22.6825 16.2472 22.6941 16.2801 22.7053 16.3133L22.7677 16.5175C22.7773 16.5525 22.7865 16.588 22.7954 16.6242L22.8441 16.8497C22.8589 16.9281 22.8724 17.0098 22.8846 17.0958L22.9176 17.3673L22.9438 17.6693L22.972 18.1902L22.9892 18.8075L22.9977 19.5382L23 20.999C23 21.5513 22.5522 21.999 22 21.999C21.4871 21.999 21.0644 21.613 21.0067 21.1156L21 20.999L20.9991 19.8716L20.9901 18.917L20.9751 18.3494L20.9602 18.0317L20.9409 17.7565L20.9166 17.5184C20.9121 17.4815 20.9074 17.446 20.9025 17.4117L20.8699 17.2194C20.8521 17.1297 20.832 17.049 20.8093 16.9743L20.7603 16.832L20.7041 16.7005C20.694 16.6791 20.6837 16.658 20.673 16.6371C20.4173 16.1353 20.0263 15.7169 19.5461 15.4281L19.3619 15.326C18.8698 15.0752 18.6742 14.4731 18.9249 13.981C19.1756 13.4889 19.7778 13.2932 20.2699 13.544ZM11.4733 15.0003H7.52843L6.83083 15.0086L6.2575 15.0266L5.93561 15.0449L5.6559 15.0688L5.41315 15.0989L5.20213 15.1358C5.07086 15.1628 4.95727 15.1946 4.85439 15.232L4.70722 15.2924L4.63804 15.326C4.07356 15.6136 3.61461 16.0726 3.32698 16.6371C3.30387 16.6824 3.28229 16.7292 3.26215 16.7782L3.20598 16.9327C3.17998 17.0142 3.15702 17.1027 3.13679 17.2011L3.09991 17.4121L3.06978 17.6547L3.04585 17.9343L3.02041 18.4343L3.00587 19.0467L3 19.999H15.999L15.996 19.3623L15.9901 18.9142L15.975 18.3454L15.96 18.0273L15.9406 17.7518L15.9161 17.5136L15.8862 17.3074L15.8502 17.1278C15.8437 17.0998 15.837 17.0727 15.8299 17.0464L15.7841 16.8967L15.7311 16.7604L15.673 16.6371C15.3854 16.0726 14.9264 15.6136 14.362 15.326C14.3166 15.3029 14.2699 15.2813 14.2209 15.2612L14.0664 15.205C13.9849 15.179 13.8964 15.156 13.7979 15.1358L13.587 15.0989L13.3443 15.0688L13.0648 15.0449L12.5649 15.0194L11.9526 15.0049L11.4733 15.0003ZM9.5 1.99902C11.9853 1.99902 14 4.01374 14 6.49902C14 8.98431 11.9853 10.999 9.5 10.999C7.01472 10.999 5 8.98431 5 6.49902C5 4.01374 7.01472 1.99902 9.5 1.99902ZM16.82 2.6425C18.1614 3.45083 19 4.90302 19 6.49902C19 8.09502 18.1614 9.54722 16.82 10.3555C16.3469 10.6406 15.7324 10.4882 15.4473 10.0151C15.1623 9.54209 15.3147 8.92754 15.7877 8.6425C16.5347 8.19243 17 7.38655 17 6.49902C17 5.6115 16.5347 4.80562 15.7877 4.35554C15.3147 4.0705 15.1623 3.45595 15.4473 2.98291C15.7324 2.50987 16.3469 2.35746 16.82 2.6425ZM9.5 3.99902C8.11929 3.99902 7 5.11831 7 6.49902C7 7.87974 8.11929 8.99902 9.5 8.99902C10.8807 8.99902 12 7.87974 12 6.49902C12 5.11831 10.8807 3.99902 9.5 3.99902Z" fill="#F9E06A"/>
</svg>
