<svg width="24" height="24" viewBox="0 0 24 24" fill="none" xmlns="http://www.w3.org/2000/svg">
<path fill-rule="evenodd" clip-rule="evenodd" d="M2.2928 2.29192C2.68332 1.90139 3.31649 1.90139 3.70701 2.29192L21.707 20.2919C22.0975 20.6824 22.0975 21.3156 21.707 21.7061C21.3165 22.0967 20.6833 22.0967 20.2928 21.7061L13.6648 15.0782C13.1697 15.3463 12.6022 15.499 11.9999 15.499C10.0669 15.499 8.49991 13.932 8.49991 11.999C8.49991 11.3968 8.65256 10.8293 8.92076 10.3341L2.2928 3.70613C1.90228 3.31561 1.90228 2.68244 2.2928 2.29192ZM10.5022 11.9155C10.5007 11.9431 10.4999 11.971 10.4999 11.999C10.4999 12.8274 11.1715 13.499 11.9999 13.499C12.0279 13.499 12.0558 13.4983 12.0834 13.4968L10.5022 11.9155ZM11.9999 6.99902C11.4101 6.99902 10.8277 7.07782 10.2567 7.21957C9.72072 7.35263 9.17833 7.02597 9.04527 6.48996C8.9122 5.95394 9.23886 5.41155 9.77487 5.27848C10.4865 5.10183 11.2311 4.99902 11.9999 4.99902C15.1095 4.99902 17.8351 6.67575 19.7091 8.22912C20.6603 9.01757 21.4276 9.80372 21.9575 10.3927C22.223 10.6879 22.4304 10.9352 22.5731 11.1109C22.6444 11.1988 22.6997 11.2688 22.738 11.3181C22.7571 11.3428 22.7721 11.3623 22.7827 11.3762L22.7953 11.3929L22.7992 11.398L22.8005 11.3998C22.8007 11.4001 22.8014 11.401 21.9999 11.999C22.8014 12.5971 22.8013 12.5972 22.8012 12.5973L22.8005 12.5983L22.7992 12.6L22.7953 12.6052L22.7827 12.6218C22.7721 12.6358 22.7571 12.6552 22.738 12.6799C22.6997 12.7292 22.6444 12.7993 22.5731 12.8872C22.4304 13.0628 22.223 13.3102 21.9575 13.6053C21.4276 14.1943 20.6603 14.9805 19.7091 15.7689C19.2839 16.1214 18.6535 16.0624 18.3011 15.6372C17.9486 15.212 18.0076 14.5816 18.4328 14.2291C19.2912 13.5176 19.9884 12.8037 20.4706 12.2677C20.5568 12.1719 20.636 12.082 20.7077 11.999C20.636 11.9161 20.5568 11.8261 20.4706 11.7303C19.9884 11.1943 19.2913 10.4805 18.4328 9.76892C16.6876 8.3223 14.4132 6.99902 11.9999 6.99902ZM21.9999 11.999L22.8012 12.5973C23.0659 12.2426 23.0661 11.7557 22.8014 11.401L21.9999 11.999ZM5.69874 8.36086C6.05119 8.78606 5.99221 9.41647 5.567 9.76892C4.70856 10.4805 4.01138 11.1943 3.5292 11.7303C3.443 11.8261 3.36386 11.9161 3.2921 11.999C3.36386 12.082 3.443 12.1719 3.5292 12.2677C4.01138 12.8037 4.70856 13.5176 5.567 14.2291C7.31225 15.6757 9.58662 16.999 11.9999 16.999C12.5946 16.999 13.1818 16.9189 13.7572 16.775C14.293 16.6409 14.836 16.9666 14.97 17.5024C15.104 18.0382 14.7784 18.5812 14.2426 18.7152C13.5257 18.8945 12.7751 18.999 11.9999 18.999C8.89035 18.999 6.16471 17.3223 4.29067 15.7689C3.33947 14.9805 2.57218 14.1943 2.04232 13.6053C1.7768 13.3102 1.56938 13.0628 1.42674 12.8872C1.35539 12.7993 1.30014 12.7292 1.26184 12.6799C1.24268 12.6552 1.22775 12.6358 1.21716 12.6218L1.20452 12.6052L1.20065 12.6L1.19934 12.5983C1.19914 12.598 1.19844 12.5971 1.99991 11.999C1.19845 11.401 1.19854 11.4009 1.19863 11.4007L1.20066 11.398L1.20452 11.3929L1.21716 11.3762C1.22775 11.3623 1.24268 11.3428 1.26184 11.3181C1.30014 11.2688 1.35539 11.1988 1.42675 11.1109C1.56938 10.9352 1.7768 10.6879 2.04232 10.3927C2.57218 9.80372 3.33947 9.01757 4.29067 8.22912C4.71588 7.87668 5.34629 7.93565 5.69874 8.36086ZM1.99991 11.999L1.19863 11.4007C0.933914 11.7555 0.933728 12.2423 1.19844 12.5971L1.99991 11.999Z" fill="#F9E06A"/>
</svg>
