<svg width="24" height="24" viewBox="0 0 24 24" fill="none" xmlns="http://www.w3.org/2000/svg">
<path fill-rule="evenodd" clip-rule="evenodd" d="M15.3924 1.13304C15.8706 0.856901 16.4822 1.02078 16.7584 1.49907L18.7791 4.99907H21C22.1046 4.99907 23 5.89448 23 6.99907V20.9991C23 22.1037 22.1046 22.9991 21 22.9991H3C1.89544 22.9991 1 22.1037 1 20.9991V6.99907C1 5.89447 1.89544 4.99907 3 4.99907H8.69617L15.3924 1.13304ZM16.4654 4.99164L15.5263 3.36509L12.7161 4.98756L16.4654 4.99164ZM21 17.4991H17.625C15.6695 17.4991 14 15.9775 14 13.9991C14 12.0207 15.6695 10.4991 17.625 10.4991H21V6.99907H3V20.9991H21V17.4991ZM21 12.4991H17.625C16.681 12.4991 16 13.2161 16 13.9991C16 14.7821 16.681 15.4991 17.625 15.4991H21V12.4991Z" fill="#F9E06A"/>
</svg>
