<svg width="581" height="581" viewBox="0 0 581 581" fill="none" xmlns="http://www.w3.org/2000/svg">
<g opacity="0.3">
<path opacity="0.4" d="M233.366 222.34L290.533 201.533L347.7 222.34L378.118 275.025L367.554 334.937L320.951 374.041H260.115L213.513 334.937L202.949 275.025L233.366 222.34Z" stroke="white" stroke-width="2"/>
<path opacity="0.4" d="M201.227 184.038L290.533 151.533L379.839 184.038L427.358 266.343L410.855 359.937L338.052 421.026H243.014L170.211 359.937L153.708 266.343L201.227 184.038Z" stroke="white" stroke-width="2"/>
<path opacity="0.4" d="M169.088 145.736L290.533 101.533L411.979 145.736L476.599 257.66L454.156 384.937L355.153 468.01H225.913L126.91 384.937L104.468 257.66L169.088 145.736Z" stroke="white" stroke-width="2"/>
<path opacity="0.4" d="M136.948 107.433L290.533 51.5329L444.118 107.433L525.839 248.978L497.458 409.937L372.254 514.995H208.812L83.6087 409.937L55.2273 248.978L136.948 107.433Z" stroke="white" stroke-width="2"/>
<path opacity="0.4" d="M104.809 69.1311L290.533 1.53292L476.258 69.1311L575.079 240.296L540.759 434.937L389.355 561.98H191.711L40.3074 434.937L5.98698 240.296L104.809 69.1311Z" stroke="white" stroke-width="2"/>
</g>
<path d="M476.431 257.68L290.899 101.832L169.024 146.181L104.597 257.88L83.6016 409.75L226.064 468.065H355.13L454.262 385.186L476.431 257.68Z" stroke="#F9E06A" stroke-width="5"/>
</svg>
