<svg width="580" height="580" viewBox="0 0 580 580" fill="none" xmlns="http://www.w3.org/2000/svg">
<g opacity="0.3">
<path opacity="0.4" d="M232.833 221.871L290 201.064L347.167 221.871L377.585 274.556L367.021 334.468L320.418 373.572H259.582L212.979 334.468L202.415 274.556L232.833 221.871Z" stroke="white" stroke-width="2"/>
<path opacity="0.4" d="M200.694 183.569L290 151.064L379.306 183.569L426.825 265.874L410.322 359.468L337.519 420.557H242.481L169.678 359.468L153.175 265.874L200.694 183.569Z" stroke="white" stroke-width="2"/>
<path opacity="0.4" d="M168.554 145.267L290 101.064L411.446 145.267L476.065 257.192L453.623 384.468L354.62 467.542H225.38L126.377 384.468L103.935 257.192L168.554 145.267Z" stroke="white" stroke-width="2"/>
<path opacity="0.4" d="M136.415 106.965L290 51.0642L443.585 106.965L525.306 248.509L496.924 409.468L371.721 514.526H208.279L83.0755 409.468L54.6941 248.509L136.415 106.965Z" stroke="white" stroke-width="2"/>
<path opacity="0.4" d="M104.276 68.6623L290 1.06417L475.724 68.6623L574.546 239.827L540.226 434.468L388.822 561.511H191.178L39.7742 434.468L5.45377 239.827L104.276 68.6623Z" stroke="white" stroke-width="2"/>
</g>
<path d="M412 360.5L427 267.5L377 183L290 152L106.5 68.5L55 249L83.0684 409.281L225.531 467.597H354.596L412 360.5Z" stroke="#F9E06A" stroke-width="5"/>
</svg>
