<svg width="24" height="24" viewBox="0 0 24 24" fill="none" xmlns="http://www.w3.org/2000/svg">
<path d="M12 1C12.5523 1 13 1.44772 13 2V3H19.7727C20.1204 3 20.4432 3.18062 20.625 3.47698L21.8523 5.47698C22.0492 5.79786 22.0492 6.20214 21.8523 6.52302L20.625 8.52302C20.4432 8.81938 20.1204 9 19.7727 9H13V20H16C16.5523 20 17 20.4477 17 21C17 21.5523 16.5523 22 16 22H8C7.44772 22 7 21.5523 7 21C7 20.4477 7.44772 20 8 20H11V16H4.22727C3.87956 16 3.55681 15.8194 3.37495 15.523L2.14768 13.523C1.95077 13.2021 1.95077 12.7979 2.14768 12.477L3.37495 10.477C3.55681 10.1806 3.87956 10 4.22727 10H11V2C11 1.44772 11.4477 1 12 1Z" fill="#0C060E"/>
</svg>
