<svg width="136" height="82" viewBox="0 0 136 82" fill="none" xmlns="http://www.w3.org/2000/svg">
<path d="M57.3429 62.2665L58.4561 45.4321L73.9198 20.0919L68.2876 20.8835L56.278 40.7403L56.1697 40.7556L46.4631 23.9507L41.3183 24.6738L53.5103 45.4093L52.3335 62.9705L57.3429 62.2665ZM84.41 59.1251C92.6958 57.9606 97.781 51.116 96.6621 43.1552C95.5662 35.3568 89.9018 31.5968 83.2136 32.5368C79.9372 32.9973 76.9561 34.576 75.4933 36.742L75.3579 36.761L77.4363 24.0433L95.2263 21.5431L95.5613 17.0504L73.6284 20.1329L70.0012 42.2632L75.0918 41.5478C76.4979 38.7822 79.6221 37.2386 82.6006 36.82C87.3392 36.1541 91.0566 39.028 91.7492 43.9561C92.5332 49.5341 89.3174 53.9622 83.956 54.7157C79.0279 55.4083 74.9809 52.9397 73.9929 48.6606L69.2001 49.3342C70.2442 56.1734 76.5575 60.2287 84.41 59.1251Z" fill="#F9E06A"/>
<path d="M130.218 31.828C131.366 40.0014 125.792 48.6025 115.227 55.8814C104.717 63.1224 89.5258 68.8516 72.1451 71.2943C54.7643 73.737 38.5827 72.417 26.4838 68.3535C14.3215 64.2687 6.5925 57.5373 5.44381 49.3639C4.29511 41.1905 9.86929 32.5894 20.4345 25.3105C30.9446 18.0695 46.1356 12.3403 63.5163 9.89764C80.897 7.45494 97.0787 8.77494 109.178 12.8385C121.34 16.9233 129.069 23.6546 130.218 31.828Z" stroke="#F9E06A" stroke-width="2"/>
</svg>
