<svg width="136" height="82" viewBox="0 0 136 82" fill="none" xmlns="http://www.w3.org/2000/svg">
<path d="M57.3429 62.266L58.4561 45.4316L73.9198 20.0915L68.2876 20.883L56.278 40.7398L56.1697 40.7551L46.4631 23.9502L41.3183 24.6733L53.5103 45.4088L52.3335 62.97L57.3429 62.266ZM84.41 59.1246C92.6958 57.9602 97.781 51.1155 96.6621 43.1547C95.5662 35.3563 89.9018 31.5963 83.2136 32.5363C79.9372 32.9968 76.9561 34.5755 75.4933 36.7415L75.3579 36.7606L77.4363 24.0428L95.2263 21.5426L95.5613 17.0499L73.6284 20.1324L70.0012 42.2627L75.0918 41.5473C76.4979 38.7817 79.6221 37.2382 82.6006 36.8195C87.3392 36.1536 91.0566 39.0275 91.7492 43.9556C92.5332 49.5336 89.3174 53.9617 83.956 54.7152C79.0279 55.4078 74.9809 52.9392 73.9929 48.6601L69.2001 49.3337C70.2442 56.1729 76.5575 60.2282 84.41 59.1246Z" fill="#010418"/>
<path d="M130.218 31.8276C131.366 40.001 125.792 48.602 115.227 55.8809C104.717 63.1219 89.5258 68.8511 72.1451 71.2938C54.7643 73.7365 38.5827 72.4165 26.4838 68.353C14.3215 64.2682 6.5925 57.5368 5.44381 49.3634C4.29511 41.19 9.86929 32.5889 20.4345 25.31C30.9446 18.069 46.1356 12.3399 63.5163 9.89715C80.897 7.45445 97.0787 8.77445 109.178 12.838C121.34 16.9228 129.069 23.6542 130.218 31.8276Z" stroke="#010418" stroke-width="2"/>
</svg>
