<svg width="378" height="378" viewBox="0 0 378 378" fill="none" xmlns="http://www.w3.org/2000/svg">
<g filter="url(#filter0_d)">
<path d="M349 179C349 147.355 339.616 116.421 322.035 90.1088C304.454 63.7969 279.466 43.2893 250.229 31.1793C220.993 19.0693 188.823 15.9007 157.786 22.0744C126.749 28.248 98.2393 43.4865 75.8629 65.8629C53.4865 88.2393 38.248 116.749 32.0744 147.786C25.9007 178.823 29.0693 210.993 41.1793 240.229C53.2893 269.466 73.7969 294.454 100.109 312.035C126.421 329.616 157.355 339 189 339V307C163.684 307 138.937 299.493 117.887 285.428C96.8375 271.363 80.4314 251.372 70.7434 227.983C61.0554 204.595 58.5206 178.858 63.4595 154.028C68.3984 129.199 80.5892 106.391 98.4903 88.4903C116.391 70.5892 139.199 58.3984 164.028 53.4595C188.858 48.5206 214.595 51.0554 237.983 60.7434C261.372 70.4314 281.363 86.8375 295.428 107.887C309.493 128.937 317 153.684 317 179H349Z" fill="#F9E06A"/>
</g>
<path d="M269 317.564C298.262 300.67 321.424 274.945 335.167 244.078L305.934 231.062C294.939 255.756 276.409 276.336 253 289.851L269 317.564Z" fill="white"/>
<path d="M349 179C349 149.492 340.84 120.56 325.422 95.4002C310.005 70.2409 287.93 49.8351 261.638 36.439C235.347 23.0428 205.863 17.1781 176.447 19.4932C147.03 21.8084 118.826 32.2132 94.9544 49.5573L113.763 75.4458C132.861 61.5705 155.424 53.2467 178.957 51.3946C202.491 49.5425 226.078 54.2342 247.111 64.9512C268.144 75.6681 285.804 91.9927 298.138 112.12C310.472 132.248 317 155.394 317 179H349Z" fill="#DBFFAD"/>
<path d="M291.846 301.567C317.73 279.848 336.073 250.493 344.247 217.708L313.198 209.966C306.658 236.194 291.984 259.679 271.277 277.054L291.846 301.567Z" fill="#B6DCFF"/>
<path d="M327.564 99C310.67 69.7382 284.945 46.5758 254.078 32.8327C223.21 19.0896 188.784 15.4713 155.734 22.4964L162.387 53.7971C188.828 48.1771 216.368 51.0717 241.062 62.0662C265.756 73.0607 286.336 91.5905 299.851 115L327.564 99Z" fill="#4BA58A"/>
<path d="M339.351 233.723C350.907 201.972 352.115 167.378 342.802 134.898L312.042 143.718C319.492 169.702 318.526 197.378 309.281 222.779L339.351 233.723Z" fill="#C4C4C4"/>
<path d="M346.569 151.216C340.702 117.941 324.451 87.3773 300.145 63.9057L277.916 86.9245C297.361 105.702 310.362 130.153 315.055 156.773L346.569 151.216Z" fill="#FFF7B1"/>
<path d="M269 317.564C239.738 334.458 205.879 341.655 172.275 338.124C138.672 334.592 107.049 320.512 81.9391 297.903L103.351 274.123C123.439 292.21 148.737 303.473 175.62 306.299C202.503 309.124 229.59 303.367 253 289.851L269 317.564Z" fill="#FF7973"/>
<path d="M161.216 336.569C127.941 330.702 97.3772 314.451 73.9056 290.145L96.9245 267.916C115.702 287.361 140.153 300.362 166.773 305.055L161.216 336.569Z" fill="#6FD6CA"/>
<defs>
<filter id="filter0_d" x="0" y="0" width="378" height="378" filterUnits="userSpaceOnUse" color-interpolation-filters="sRGB">
<feFlood flood-opacity="0" result="BackgroundImageFix"/>
<feColorMatrix in="SourceAlpha" type="matrix" values="0 0 0 0 0 0 0 0 0 0 0 0 0 0 0 0 0 0 127 0"/>
<feMorphology radius="1" operator="erode" in="SourceAlpha" result="effect1_dropShadow"/>
<feOffset dy="10"/>
<feGaussianBlur stdDeviation="15"/>
<feColorMatrix type="matrix" values="0 0 0 0 0.976471 0 0 0 0 0.878431 0 0 0 0 0.415686 0 0 0 0.25 0"/>
<feBlend mode="normal" in2="BackgroundImageFix" result="effect1_dropShadow"/>
<feBlend mode="normal" in="SourceGraphic" in2="effect1_dropShadow" result="shape"/>
</filter>
</defs>
</svg>
