<svg width="24" height="24" viewBox="0 0 24 24" fill="none" xmlns="http://www.w3.org/2000/svg">
<path fill-rule="evenodd" clip-rule="evenodd" d="M18.2333 2.07574C18.6075 2.23027 18.8517 2.59518 18.8517 3.00003V5.15013H21C21.4041 5.15013 21.7684 5.39327 21.9235 5.76638C22.0785 6.13949 21.9938 6.56925 21.7088 6.85561L19.0213 9.55551C18.8336 9.74404 18.5786 9.85003 18.3125 9.85003H15.5616L12.7074 12.7069C12.3171 13.0976 11.6839 13.0979 11.2932 12.7075C10.9025 12.3172 10.9022 11.684 11.2926 11.2933L14.15 8.43324V5.71323C14.15 5.44875 14.2548 5.19505 14.4414 5.00763L17.143 2.29443C17.4287 2.00755 17.8592 1.92121 18.2333 2.07574ZM16.15 7.85003H17.897L18.5937 7.15013H17.8517C17.2994 7.15013 16.8517 6.70241 16.8517 6.15013V5.42154L16.15 6.12619V7.85003ZM2 12C2 6.47719 6.47717 2.00003 12 2.00003C12.5523 2.00003 13 2.44774 13 3.00003C13 3.55231 12.5523 4.00003 12 4.00003C7.58173 4.00003 4 7.58176 4 12C4 16.4183 7.58173 20 12 20C16.4183 20 20 16.4183 20 12C20 11.4477 20.4477 11 21 11C21.5523 11 22 11.4477 22 12C22 17.5229 17.5228 22 12 22C6.47717 22 2 17.5229 2 12ZM6.5 12C6.5 8.96244 8.96242 6.50003 12 6.50003C12.5523 6.50003 13 6.94774 13 7.50003C13 8.05231 12.5523 8.50003 12 8.50003C10.067 8.50003 8.5 10.067 8.5 12C8.5 13.933 10.067 15.5 12 15.5C13.933 15.5 15.5 13.933 15.5 12C15.5 11.4477 15.9477 11 16.5 11C17.0523 11 17.5 11.4477 17.5 12C17.5 15.0376 15.0376 17.5 12 17.5C8.96242 17.5 6.5 15.0376 6.5 12Z" fill="#0C060E"/>
</svg>
