<svg width="24" height="24" viewBox="0 0 24 24" fill="none" xmlns="http://www.w3.org/2000/svg">
<path fill-rule="evenodd" clip-rule="evenodd" d="M15.3924 1.13414C15.8706 0.858 16.4822 1.02187 16.7584 1.50017L18.7791 5.00017H21C22.1046 5.00017 23 5.89558 23 7.00017V21.0002C23 22.1048 22.1046 23.0002 21 23.0002H3C1.89544 23.0002 1 22.1048 1 21.0002V7.00017C1 5.89557 1.89544 5.00017 3 5.00017H8.69617L15.3924 1.13414ZM16.4654 4.99273L15.5263 3.36619L12.7161 4.98866L16.4654 4.99273ZM21 17.5002H17.625C15.6695 17.5002 14 15.9786 14 14.0002C14 12.0218 15.6695 10.5002 17.625 10.5002H21V7.00017H3V21.0002H21V17.5002ZM21 12.5002H17.625C16.681 12.5002 16 13.2172 16 14.0002C16 14.7832 16.681 15.5002 17.625 15.5002H21V12.5002Z" fill="#0C060E"/>
</svg>
