<svg width="24" height="24" viewBox="0 0 24 24" fill="none" xmlns="http://www.w3.org/2000/svg">
<path d="M11.9992 6C8.61922 6 5.49922 7.12 2.99922 9L1.19922 6.6C4.20922 4.34 7.94922 3 11.9992 3C16.0492 3 19.7892 4.34 22.7992 6.6L20.9992 9C18.4992 7.12 15.3792 6 11.9992 6ZM11.9992 15C10.6492 15 9.39922 15.45 8.39922 16.2L11.9992 21L13.0392 19.61C12.9992 19.41 12.9992 19.21 12.9992 19C12.9992 17.66 13.4392 16.43 14.1892 15.43C13.4992 15.16 12.7692 15 11.9992 15ZM16.8392 13.41C17.1792 13.27 17.5492 13.17 17.9192 13.1L19.1992 11.4C17.1892 9.89 14.6992 9 11.9992 9C9.29922 9 6.80922 9.89 4.79922 11.4L6.59922 13.8C8.09922 12.67 9.96922 12 11.9992 12C13.7792 12 15.4392 12.5 16.8392 13.41ZM19.9992 18V15H17.9992V18H14.9992V20H17.9992V23H19.9992V20H22.9992V18H19.9992Z" fill="#030518"/>
</svg>
